<svg width="27" height="27" fill="none" xmlns="http://www.w3.org/2000/svg"><path fill-rule="evenodd" clip-rule="evenodd" d="M18.594 14.069a61.58 61.58 0 0 1-2.05 1.76 1.034 1.034 0 0 0-.342 1.066 34.02 34.02 0 0 1 .826 4.133.973.973 0 0 1-.48.974c-1.137.66-3.73 2.145-5.16 2.82-.264.125-.483-.15-.349-.41.7-1.35.901-2.91.64-4.377-.096-.547-.673-.812-1.223-.741-.985.127-1.794-.138-2.463-.808-.691-.69-.953-1.53-.797-2.56.082-.54-.166-1.11-.7-1.227-1.466-.322-3.03-.192-4.395.433-.265.12-.534-.111-.405-.372.678-1.365 2.11-3.848 2.739-4.928a.965.965 0 0 1 .916-.481c1.58.136 3.049.437 4.324.79.394.108.817-.022 1.077-.338a62.028 62.028 0 0 1 1.658-1.918C18.037 1.615 23.895.283 25.858.005a.523.523 0 0 1 .6.613c-.32 1.99-1.754 7.984-7.864 13.451ZM5.5 19.841a.926.926 0 0 0 1.075 1.075c.163-.027.337-.058.518-.091.697-.129 1.327.464 1.061 1.12a6.772 6.772 0 0 1-1.518 2.253C4.393 26.44 1.88 26.258.888 26.07a.717.717 0 0 1-.57-.533c-.237-.952-.501-3.354 1.901-5.756.773-.773 1.546-1.27 2.27-1.581.654-.28 1.248.35 1.117 1.048-.039.209-.074.408-.106.593Z" fill="#000"/></svg>